<?xml version="1.0" encoding="utf-8"?>
<!-- Generator: Adobe Illustrator 14.0.0, SVG Export Plug-In . SVG Version: 6.00 Build 43363)  -->
<!DOCTYPE svg PUBLIC "-//W3C//DTD SVG 1.1//EN" "http://www.w3.org/Graphics/SVG/1.1/DTD/svg11.dtd">
<svg version="1.1" id="Layer_1" xmlns="http://www.w3.org/2000/svg" xmlns:xlink="http://www.w3.org/1999/xlink" x="0px" y="0px"
	 width="250px" height="99.32px" viewBox="0 0 250 99.32" enable-background="new 0 0 250 99.32" xml:space="preserve">
<g>
	<path d="M47.815,62.547c-3.496,1.997-7.99,3.495-11.486,3.495c-4.37,0-5.494-2.746-5.494-7.241V33.708h13.609V19.101H30.836V0
		L9.862,4.744v14.357H0v14.607h9.862v24.844c0,9.113,1.249,14.106,4.994,17.729c3.121,2.994,8.24,4.492,14.232,4.492
		c6.367,0,14.233-1.996,18.227-4.869L47.815,62.547L47.815,62.547z M146.718,39.7c0-6.492-0.874-9.613-2.747-12.733
		c-3.372-5.743-9.988-8.989-17.979-8.989c-7.365,0-13.857,3.246-18.351,8.365c-3.496-5.244-9.863-8.365-17.604-8.365
		c-8.489,0-15.73,3.371-20.1,9.613l-3.746-8.489H46.467v14.607h7.365V79.65h20.975V44.819c0-2.746,0.125-5.743,1.498-7.74
		c1.248-1.998,3.246-3.496,6.492-3.496c2.871,0,4.869,1.373,5.868,3.12c0.999,1.623,1.124,3.746,1.124,6.243V79.65h20.974V44.819
		c0-2.746,0.125-5.743,1.498-7.74c1.248-1.998,3.246-3.496,6.491-3.496c2.872,0,4.869,1.373,5.869,3.12
		c0.999,1.623,1.123,3.746,1.123,6.243V79.65h20.975V39.7L146.718,39.7z M248.252,39.7c0-6.492-0.874-9.613-2.747-12.733
		c-3.37-5.743-9.987-8.989-17.977-8.989c-7.365,0-13.857,3.246-18.353,8.365c-3.496-5.244-9.862-8.365-17.604-8.365
		c-8.489,0-15.73,3.371-20.099,9.613l-3.746-8.489h-19.726v14.607h7.365V79.65h20.975V44.819c0-2.746,0.124-5.743,1.498-7.74
		c1.248-1.998,3.245-3.496,6.491-3.496c2.873,0,4.869,1.373,5.868,3.12c0.999,1.623,1.124,3.746,1.124,6.243V79.65h20.973V44.819
		c0-2.746,0.126-5.743,1.499-7.74c1.249-1.998,3.246-3.496,6.492-3.496c2.871,0,4.868,1.373,5.868,3.12
		c0.998,1.623,1.124,3.746,1.124,6.243V79.65h20.973V39.7L248.252,39.7z"/>
	<path d="M13.729,84.318H4.266v2.184h3.179v9.055h3.107v-9.055h3.178V84.318L13.729,84.318z M22.648,89.875
		c0-0.924-0.125-1.438-0.391-1.881c-0.461-0.783-1.438-1.209-2.574-1.209c-0.853,0-1.669,0.32-2.238,0.854v-4.227h-2.982v12.145
		h2.982v-4.971c0-0.391,0.035-0.799,0.231-1.084c0.177-0.283,0.497-0.496,0.959-0.496c0.408,0,0.728,0.193,0.87,0.443
		c0.143,0.23,0.16,0.533,0.16,0.887v5.221h2.983V89.875L22.648,89.875z M31.999,90.639c0-2.396-1.722-3.854-4.172-3.854
		s-4.296,1.617-4.296,4.51c0,2.717,1.633,4.422,4.475,4.422c1.242,0,2.556-0.303,3.498-0.994l0.106-1.9
		c-0.799,0.551-1.899,0.906-2.929,0.906c-1.19,0-1.865-0.551-2.06-1.598h4.172c0.373,0,0.675-0.053,0.888-0.285
		C31.928,91.58,31.999,91.137,31.999,90.639L31.999,90.639z M29.105,90.461c0,0.16-0.071,0.232-0.196,0.232h-2.361
		c0.018-1.314,0.515-1.973,1.278-1.973C28.732,88.721,29.105,89.574,29.105,90.461L29.105,90.461z M46.949,84.318h-2.54v6.178
		c-0.106-0.248-0.301-0.533-0.515-0.779l-4.581-5.398h-1.9v11.238h2.557v-6.125c0.089,0.23,0.284,0.516,0.479,0.746l4.545,5.379
		h1.953V84.318L46.949,84.318z M56.541,90.639c0-2.396-1.722-3.854-4.172-3.854c-2.451,0-4.297,1.617-4.297,4.51
		c0,2.717,1.634,4.422,4.475,4.422c1.243,0,2.557-0.303,3.498-0.994l0.107-1.9c-0.799,0.551-1.9,0.906-2.93,0.906
		c-1.189,0-1.864-0.551-2.06-1.598h4.172c0.373,0,0.675-0.053,0.888-0.285C56.47,91.58,56.541,91.137,56.541,90.639L56.541,90.639z
		 M53.646,90.461c0,0.16-0.071,0.232-0.195,0.232H51.09c0.018-1.314,0.515-1.973,1.278-1.973
		C53.273,88.721,53.646,89.574,53.646,90.461L53.646,90.461z M66.792,86.945l-1.153,3.889c-0.178,0.568-0.267,1.047-0.284,1.527
		c-0.018-0.498-0.125-0.924-0.284-1.527l-1.065-3.889h-2.664l0.568,1.793l-0.71,2.166c-0.196,0.586-0.302,0.959-0.32,1.404
		c0-0.48-0.107-0.836-0.302-1.422L59.3,86.945h-2.895l3.018,8.611h2.22l1.243-3.676l1.137,3.676h2.291l2.894-8.611H66.792
		L66.792,86.945z M77.534,93.373l4.635-7.314v-1.74h-8.275v2.184h4.528l-4.634,7.314v1.74h8.54l0.142-2.184H77.534L77.534,93.373z
		 M91.317,90.639c0-2.396-1.723-3.854-4.173-3.854c-2.45,0-4.296,1.617-4.296,4.51c0,2.717,1.633,4.422,4.474,4.422
		c1.242,0,2.556-0.303,3.497-0.994l0.107-1.9c-0.799,0.551-1.9,0.906-2.93,0.906c-1.189,0-1.864-0.551-2.059-1.598h4.172
		c0.373,0,0.675-0.053,0.888-0.285C91.246,91.58,91.317,91.137,91.317,90.639L91.317,90.639z M88.423,90.461
		c0,0.16-0.071,0.232-0.196,0.232h-2.361c0.018-1.314,0.515-1.973,1.278-1.973C88.05,88.721,88.423,89.574,88.423,90.461
		L88.423,90.461z M101.05,93.533c-0.142,0.105-0.479,0.23-0.728,0.23c-0.266,0-0.408-0.16-0.408-0.479v-3.303
		c0-1.031-0.231-1.795-0.835-2.309c-0.728-0.621-1.74-0.889-3.213-0.889c-1.154,0-2.397,0.268-3.196,0.586v1.955
		c0.729-0.375,1.847-0.676,2.734-0.676c0.551,0,1.012,0.125,1.243,0.373c0.249,0.266,0.284,0.604,0.284,1.064v0.248
		c-0.516-0.195-1.136-0.301-1.722-0.301c-1.936,0-3.303,0.977-3.303,2.857c0,1.813,1.172,2.824,3.018,2.824
		c0.995,0,1.918-0.373,2.397-0.977c0.231,0.639,0.888,0.959,1.687,0.959c0.728,0,1.491-0.23,1.936-0.533L101.05,93.533
		L101.05,93.533z M96.931,92.822c0,0.32-0.106,0.604-0.267,0.764c-0.142,0.16-0.39,0.268-0.692,0.268
		c-0.639,0-1.048-0.391-1.048-1.139c0-0.691,0.32-1.205,1.083-1.205c0.373,0,0.692,0.105,0.923,0.195V92.822L96.931,92.822z
		 M105.873,93.533c-0.143,0.105-0.48,0.23-0.728,0.23c-0.266,0-0.408-0.16-0.408-0.479v-9.873h-4.03v2.078h1.047v8.008
		c0,0.691,0.088,1.1,0.302,1.438c0.32,0.516,0.887,0.764,1.811,0.764c0.728,0,1.473-0.23,1.917-0.533L105.873,93.533L105.873,93.533
		z M115.518,93.533c-0.141,0.105-0.479,0.23-0.728,0.23c-0.267,0-0.408-0.16-0.408-0.479v-3.303c0-1.031-0.231-1.795-0.834-2.309
		c-0.729-0.621-1.741-0.889-3.214-0.889c-1.154,0-2.397,0.268-3.196,0.586v1.955c0.728-0.375,1.847-0.676,2.734-0.676
		c0.55,0,1.012,0.125,1.243,0.373c0.249,0.266,0.284,0.604,0.284,1.064v0.248c-0.515-0.195-1.136-0.301-1.722-0.301
		c-1.935,0-3.303,0.977-3.303,2.857c0,1.813,1.172,2.824,3.018,2.824c0.995,0,1.918-0.373,2.397-0.977
		c0.23,0.639,0.888,0.959,1.687,0.959c0.729,0,1.492-0.23,1.936-0.533L115.518,93.533L115.518,93.533z M111.399,92.822
		c0,0.32-0.106,0.604-0.266,0.764c-0.142,0.16-0.391,0.268-0.693,0.268c-0.638,0-1.047-0.391-1.047-1.139
		c0-0.691,0.32-1.205,1.084-1.205c0.373,0,0.692,0.105,0.922,0.195V92.822L111.399,92.822z M124.624,89.875
		c0-0.924-0.125-1.438-0.391-1.881c-0.48-0.818-1.438-1.209-2.575-1.209c-1.189,0-2.326,0.498-2.93,1.367l-0.532-1.207h-2.805v2.078
		h1.047v6.533h2.983v-4.971c0-0.391,0.036-0.799,0.23-1.084c0.178-0.283,0.498-0.496,0.958-0.496c0.409,0,0.728,0.193,0.871,0.443
		c0.142,0.23,0.16,0.533,0.16,0.887v5.221h2.983V89.875L124.624,89.875z M135.183,93.533c-0.143,0.105-0.479,0.23-0.729,0.23
		c-0.267,0-0.408-0.16-0.408-0.479v-9.873h-4.031v2.078h1.048v1.332c-0.229-0.02-0.461-0.037-0.71-0.037
		c-2.663,0-4.847,1.723-4.847,4.92c0,2.572,1.385,4.012,3.463,4.012c1.028,0,1.935-0.443,2.414-1.029
		c0.284,0.674,1.012,1.012,1.758,1.012c0.71,0,1.42-0.23,1.936-0.568L135.183,93.533L135.183,93.533z M131.063,92.236
		c0,0.338-0.052,0.711-0.229,0.941c-0.179,0.23-0.498,0.408-0.906,0.408c-1.047,0-1.402-0.906-1.402-2.041
		c0-1.74,0.728-2.967,2.06-2.967c0.212,0,0.372,0.018,0.479,0.037V92.236L131.063,92.236z M152.315,84.318h-2.895l-2.644,5.859
		c-0.215,0.479-0.393,1.029-0.428,1.313h-0.017c-0.019-0.23-0.267-0.887-0.48-1.33l-2.841-5.842h-2.788v11.238h2.557v-6.551
		c0.106,0.691,0.356,1.367,0.605,1.881l2.235,4.67h1.297l2.237-4.918c0.177-0.391,0.532-1.189,0.585-1.615v6.533h2.575V84.318
		L152.315,84.318z M162.289,91.26c0-2.682-1.581-4.475-4.422-4.475c-2.84,0-4.421,1.793-4.421,4.475s1.581,4.457,4.421,4.457
		C160.691,95.717,162.289,93.941,162.289,91.26L162.289,91.26z M159.271,91.26c0,1.598-0.304,2.469-1.404,2.469
		s-1.402-0.871-1.402-2.469s0.302-2.484,1.402-2.484S159.271,89.662,159.271,91.26L159.271,91.26z M168.659,86.838
		c-0.213-0.053-0.372-0.053-0.622-0.053c-0.993,0-1.846,0.551-2.255,1.387l-0.532-1.227h-2.805v2.078h1.048v6.533h2.983v-4.848
		c0-1.135,0.406-1.633,1.401-1.633c0.25,0,0.532,0.018,0.781,0.053V86.838L168.659,86.838z M175.736,93.125
		c-0.498,0.283-1.136,0.496-1.633,0.496c-0.622,0-0.782-0.391-0.782-1.029v-3.568h1.936v-2.078h-1.936v-2.717l-2.983,0.676v2.041
		h-1.402v2.078h1.402v3.533c0,1.297,0.179,2.006,0.712,2.52c0.442,0.428,1.171,0.641,2.023,0.641c0.905,0,2.024-0.285,2.592-0.693
		L175.736,93.125L175.736,93.125z M184.813,87.318c-0.871-0.303-2.31-0.533-3.375-0.533c-2.983,0-5.255,1.74-5.255,4.9
		c0,2.469,1.332,3.906,3.604,3.906c0.853,0,1.651-0.338,2.043-0.816v0.729c0,1.172-0.444,1.723-1.688,1.723
		c-0.976,0-2.077-0.391-2.929-0.906l-0.213,2.113c1.082,0.568,2.307,0.887,3.728,0.887c1.51,0,2.576-0.373,3.25-1.152
		c0.586-0.676,0.835-1.635,0.835-3.072V87.318L184.813,87.318z M181.83,92.184c0,0.373-0.072,0.746-0.266,0.959
		c-0.215,0.248-0.551,0.391-0.959,0.391c-0.854,0-1.402-0.676-1.402-2.043c0-1.58,0.763-2.752,2.165-2.752
		c0.159,0,0.337,0.018,0.462,0.055V92.184L181.83,92.184z M194.986,93.533c-0.143,0.105-0.479,0.23-0.729,0.23
		c-0.266,0-0.407-0.16-0.407-0.479v-3.303c0-1.031-0.23-1.795-0.836-2.309c-0.727-0.621-1.738-0.889-3.213-0.889
		c-1.154,0-2.397,0.268-3.196,0.586v1.955c0.729-0.375,1.847-0.676,2.734-0.676c0.551,0,1.012,0.125,1.243,0.373
		c0.249,0.266,0.285,0.604,0.285,1.064v0.248c-0.517-0.195-1.138-0.301-1.724-0.301c-1.936,0-3.303,0.977-3.303,2.857
		c0,1.813,1.172,2.824,3.019,2.824c0.994,0,1.919-0.373,2.397-0.977c0.231,0.639,0.888,0.959,1.687,0.959
		c0.728,0,1.492-0.23,1.937-0.533L194.986,93.533L194.986,93.533z M190.868,92.822c0,0.32-0.108,0.604-0.268,0.764
		c-0.141,0.16-0.391,0.268-0.692,0.268c-0.639,0-1.048-0.391-1.048-1.139c0-0.691,0.32-1.205,1.083-1.205
		c0.374,0,0.693,0.105,0.925,0.195V92.822L190.868,92.822z M203.861,87.318c-0.869-0.303-2.307-0.533-3.373-0.533
		c-2.983,0-5.255,1.74-5.255,4.9c0,2.469,1.332,3.906,3.604,3.906c0.853,0,1.651-0.338,2.042-0.816v0.729
		c0,1.172-0.443,1.723-1.687,1.723c-0.976,0-2.077-0.391-2.93-0.906l-0.214,2.113c1.084,0.568,2.31,0.887,3.729,0.887
		c1.51,0,2.574-0.373,3.249-1.152c0.585-0.676,0.834-1.635,0.834-3.072V87.318L203.861,87.318z M200.879,92.184
		c0,0.373-0.07,0.746-0.266,0.959c-0.214,0.248-0.551,0.391-0.96,0.391c-0.853,0-1.402-0.676-1.402-2.043
		c0-1.58,0.765-2.752,2.167-2.752c0.16,0,0.336,0.018,0.461,0.055V92.184L200.879,92.184z M213.276,90.639
		c0-2.396-1.723-3.854-4.174-3.854c-2.45,0-4.295,1.617-4.295,4.51c0,2.717,1.633,4.422,4.474,4.422
		c1.243,0,2.557-0.303,3.498-0.994l0.106-1.9c-0.8,0.551-1.9,0.906-2.931,0.906c-1.188,0-1.864-0.551-2.06-1.598h4.174
		c0.372,0,0.674-0.053,0.887-0.285C213.204,91.58,213.276,91.137,213.276,90.639L213.276,90.639z M210.382,90.461
		c0,0.16-0.071,0.232-0.195,0.232h-2.361c0.018-1.314,0.515-1.973,1.277-1.973C210.009,88.721,210.382,89.574,210.382,90.461
		L210.382,90.461z M230.765,84.318h-2.895l-2.646,5.859c-0.213,0.479-0.391,1.029-0.426,1.313h-0.019
		c-0.017-0.23-0.266-0.887-0.479-1.33l-2.841-5.842h-2.788v11.238h2.557v-6.551c0.107,0.691,0.356,1.367,0.604,1.881l2.237,4.67
		h1.297l2.237-4.918c0.177-0.391,0.533-1.189,0.585-1.615v6.533h2.575V84.318L230.765,84.318z M241.124,93.533
		c-0.141,0.105-0.479,0.23-0.728,0.23c-0.267,0-0.409-0.16-0.409-0.479v-3.303c0-1.031-0.23-1.795-0.833-2.309
		c-0.728-0.621-1.74-0.889-3.214-0.889c-1.154,0-2.397,0.268-3.196,0.586v1.955c0.728-0.375,1.847-0.676,2.733-0.676
		c0.552,0,1.014,0.125,1.243,0.373c0.249,0.266,0.284,0.604,0.284,1.064v0.248c-0.514-0.195-1.136-0.301-1.722-0.301
		c-1.936,0-3.302,0.977-3.302,2.857c0,1.813,1.171,2.824,3.018,2.824c0.994,0,1.917-0.373,2.396-0.977
		c0.23,0.639,0.889,0.959,1.687,0.959c0.729,0,1.492-0.23,1.936-0.533L241.124,93.533L241.124,93.533z M237.005,92.822
		c0,0.32-0.106,0.604-0.266,0.764c-0.143,0.16-0.391,0.268-0.692,0.268c-0.64,0-1.048-0.391-1.048-1.139
		c0-0.691,0.319-1.205,1.084-1.205c0.372,0,0.692,0.105,0.922,0.195V92.822L237.005,92.822z M250,87.318
		c-0.869-0.303-2.308-0.533-3.373-0.533c-2.983,0-5.256,1.74-5.256,4.9c0,2.469,1.331,3.906,3.604,3.906
		c0.853,0,1.651-0.338,2.041-0.816v0.729c0,1.172-0.442,1.723-1.686,1.723c-0.978,0-2.078-0.391-2.931-0.906l-0.212,2.113
		c1.083,0.568,2.308,0.887,3.728,0.887c1.51,0,2.575-0.373,3.249-1.152c0.587-0.676,0.835-1.635,0.835-3.072V87.318L250,87.318z
		 M247.017,92.184c0,0.373-0.07,0.746-0.266,0.959c-0.213,0.248-0.551,0.391-0.959,0.391c-0.852,0-1.402-0.676-1.402-2.043
		c0-1.58,0.763-2.752,2.166-2.752c0.159,0,0.338,0.018,0.461,0.055V92.184L247.017,92.184z"/>
</g>
</svg>
